<svg width="43" height="47" viewBox="0 0 43 47" fill="none" xmlns="http://www.w3.org/2000/svg">
<path d="M22.1591 46.1832C17.5777 46.1832 13.6368 45.2126 10.3367 43.2713C7.05588 41.3106 4.53221 38.5928 2.76564 35.1179C1.01848 31.643 0.144897 27.6439 0.144897 23.1207C0.144897 18.5393 1.02818 14.5208 2.79476 11.0653C4.58074 7.59043 7.11412 4.88234 10.3949 2.94105C13.6757 0.980349 17.5777 0 22.1009 0C26.0029 0 29.4195 0.708568 32.3509 2.12571C35.2822 3.54285 37.602 5.53267 39.3104 8.09517C41.0187 10.6577 41.9602 13.6667 42.135 17.1222H30.429C30.099 14.8897 29.2254 13.094 27.8083 11.7351C26.4105 10.3568 24.576 9.66761 22.3047 9.66761C20.3828 9.66761 18.7036 10.1918 17.2671 11.2401C15.8499 12.2689 14.7434 13.7734 13.9475 15.7536C13.1515 17.7337 12.7536 20.1312 12.7536 22.946C12.7536 25.7997 13.1418 28.2263 13.9183 30.2258C14.7143 32.2254 15.8305 33.7493 17.2671 34.7976C18.7036 35.8459 20.3828 36.37 22.3047 36.37C23.7218 36.37 24.9934 36.0788 26.1193 35.4964C27.2647 34.9141 28.2062 34.0696 28.9439 32.9631C29.701 31.8371 30.196 30.4879 30.429 28.9155H42.135C41.9408 32.3321 41.009 35.3411 39.3395 37.9425C37.6894 40.5244 35.4084 42.5433 32.4965 43.9993C29.5845 45.4553 26.1387 46.1832 22.1591 46.1832Z" fill="#1A1A2E"/>
<path d="M12.75 22.8097L1 30.3097C1 30.3097 3.71933e-05 26.8097 0 23.3097C0 19.3097 1.01004 15.8097 1.01004 15.8097L12.75 22.8097Z" fill="#815BD4"/>
<path d="M12.75 22.8097L1 30.3097C1 30.3097 3.71933e-05 26.8097 0 23.3097C0 19.3097 1.01004 15.8097 1.01004 15.8097L12.75 22.8097Z" fill="#815BD4"/>
</svg>
