<svg width="320" height="47" viewBox="0 0 320 47" fill="none" xmlns="http://www.w3.org/2000/svg">
<path d="M318.077 13.3949L306.72 14.0938C306.526 13.1231 306.109 12.2495 305.468 11.473C304.828 10.6771 303.983 10.0462 302.935 9.58026C301.906 9.09494 300.673 8.85228 299.237 8.85228C297.315 8.85228 295.694 9.25995 294.374 10.0753C293.054 10.8712 292.394 11.9389 292.394 13.2784C292.394 14.3461 292.821 15.2488 293.675 15.9865C294.529 16.7242 295.995 17.3163 298.072 17.7628L306.167 19.3935C310.516 20.2865 313.758 21.723 315.893 23.7031C318.028 25.6832 319.096 28.2846 319.096 31.5071C319.096 34.4385 318.232 37.0107 316.504 39.2237C314.796 41.4368 312.447 43.1645 309.458 44.407C306.487 45.63 303.061 46.2415 299.178 46.2415C293.258 46.2415 288.54 45.0088 285.026 42.5433C281.532 40.0585 279.484 36.6806 278.882 32.4098L291.083 31.7692C291.452 33.5746 292.345 34.9529 293.762 35.9041C295.179 36.8359 296.994 37.3019 299.208 37.3019C301.382 37.3019 303.129 36.8845 304.449 36.0497C305.789 35.1955 306.468 34.0987 306.487 32.7592C306.468 31.6333 305.992 30.7112 305.061 29.9929C304.129 29.2552 302.692 28.6922 300.751 28.304L293.005 26.7607C288.637 25.8871 285.386 24.3729 283.25 22.218C281.134 20.0632 280.076 17.3163 280.076 13.9773C280.076 11.1042 280.853 8.62903 282.406 6.55185C283.978 4.47467 286.182 2.87311 289.016 1.74716C291.87 0.621216 295.208 0.0582428 299.033 0.0582428C304.682 0.0582428 309.128 1.25213 312.37 3.63992C315.631 6.0277 317.533 9.27936 318.077 13.3949Z" fill="#1A1A2E"/>
<path d="M242.257 19.5099V45.3679H229.853V0.640625H241.675V8.53196H242.199C243.189 5.93064 244.849 3.87287 247.179 2.35867C249.508 0.82505 252.333 0.0582428 255.652 0.0582428C258.758 0.0582428 261.467 0.737691 263.777 2.09659C266.087 3.45549 267.882 5.39678 269.164 7.92046C270.445 10.4247 271.086 13.4143 271.086 16.8892V45.3679H258.681V19.1023C258.7 16.3651 258.001 14.2296 256.584 12.696C255.167 11.143 253.216 10.3665 250.731 10.3665C249.062 10.3665 247.586 10.7256 246.305 11.4439C245.043 12.1622 244.053 13.2105 243.335 14.5888C242.636 15.9477 242.277 17.5881 242.257 19.5099Z" fill="#1A1A2E"/>
<path d="M201.228 46.2415C196.627 46.2415 192.667 45.3097 189.348 43.446C186.047 41.563 183.504 38.9034 181.718 35.4673C179.932 32.0118 179.039 27.9254 179.039 23.2081C179.039 18.6072 179.932 14.5694 181.718 11.0945C183.504 7.61956 186.018 4.91146 189.26 2.97017C192.522 1.02888 196.346 0.0582428 200.733 0.0582428C203.684 0.0582428 206.431 0.533858 208.974 1.48509C211.537 2.41691 213.769 3.82434 215.672 5.70739C217.593 7.59044 219.088 9.95881 220.156 12.8125C221.224 15.6468 221.757 18.9664 221.757 22.7713V26.1783H183.99V18.4908H210.081C210.081 16.7048 209.692 15.1226 208.916 13.7443C208.139 12.366 207.062 11.2886 205.684 10.5121C204.325 9.71615 202.743 9.31818 200.937 9.31818C199.054 9.31818 197.385 9.75497 195.929 10.6286C194.492 11.4827 193.366 12.6378 192.551 14.0938C191.735 15.5303 191.318 17.1319 191.299 18.8984V26.2074C191.299 28.4205 191.706 30.3326 192.522 31.9439C193.356 33.5552 194.531 34.7976 196.045 35.6712C197.559 36.5447 199.355 36.9815 201.432 36.9815C202.811 36.9815 204.072 36.7874 205.218 36.3992C206.363 36.0109 207.343 35.4285 208.159 34.652C208.974 33.8755 209.595 32.9242 210.022 31.7983L221.495 32.5554C220.913 35.312 219.719 37.7192 217.914 39.777C216.128 41.8153 213.818 43.4072 210.983 44.5526C208.168 45.6785 204.917 46.2415 201.228 46.2415Z" fill="#1A1A2E"/>
<path d="M149.374 45.3679V0.640625H161.4V8.44461H161.866C162.682 5.66856 164.05 3.57197 165.972 2.15483C167.894 0.71828 170.107 0 172.611 0C173.233 0 173.902 0.0388273 174.621 0.116478C175.339 0.194132 175.97 0.300903 176.513 0.43679V11.4439C175.931 11.2692 175.125 11.1139 174.096 10.978C173.068 10.8421 172.126 10.7742 171.272 10.7742C169.447 10.7742 167.816 11.1721 166.38 11.968C164.963 12.7446 163.837 13.8317 163.002 15.2294C162.187 16.6271 161.779 18.2384 161.779 20.0632V45.3679H149.374Z" fill="#1A1A2E"/>
<path d="M120.75 46.2415C116.149 46.2415 112.189 45.3097 108.869 43.446C105.569 41.563 103.026 38.9034 101.24 35.4673C99.4539 32.0118 98.5609 27.9254 98.5609 23.2081C98.5609 18.6072 99.4539 14.5694 101.24 11.0945C103.026 7.61956 105.54 4.91146 108.782 2.97017C112.043 1.02888 115.867 0.0582428 120.255 0.0582428C123.206 0.0582428 125.952 0.533858 128.496 1.48509C131.058 2.41691 133.291 3.82434 135.193 5.70739C137.115 7.59044 138.61 9.95881 139.677 12.8125C140.745 15.6468 141.279 18.9664 141.279 22.7713V26.1783H103.511V18.4908H129.602C129.602 16.7048 129.214 15.1226 128.437 13.7443C127.661 12.366 126.583 11.2886 125.205 10.5121C123.846 9.71615 122.264 9.31818 120.459 9.31818C118.576 9.31818 116.906 9.75497 115.45 10.6286C114.014 11.4827 112.888 12.6378 112.072 14.0938C111.257 15.5303 110.84 17.1319 110.82 18.8984V26.2074C110.82 28.4205 111.228 30.3326 112.043 31.9439C112.878 33.5552 114.052 34.7976 115.567 35.6712C117.081 36.5447 118.876 36.9815 120.954 36.9815C122.332 36.9815 123.594 36.7874 124.739 36.3992C125.885 36.0109 126.865 35.4285 127.68 34.652C128.496 33.8755 129.117 32.9242 129.544 31.7983L141.017 32.5554C140.434 35.312 139.241 37.7192 137.435 39.777C135.649 41.8153 133.339 43.4072 130.505 44.5526C127.69 45.6785 124.438 46.2415 120.75 46.2415Z" fill="#1A1A2E"/>
<path d="M70.2861 46.2415C65.7629 46.2415 61.8512 45.2805 58.551 43.3587C55.2702 41.4174 52.7368 38.719 50.9508 35.2635C49.1648 31.7886 48.2719 27.7604 48.2719 23.179C48.2719 18.5587 49.1648 14.5208 50.9508 11.0653C52.7368 7.59044 55.2702 4.89205 58.551 2.97017C61.8512 1.02888 65.7629 0.0582428 70.2861 0.0582428C74.8093 0.0582428 78.7112 1.02888 81.992 2.97017C85.2922 4.89205 87.8353 7.59044 89.6213 11.0653C91.4073 14.5208 92.3003 18.5587 92.3003 23.179C92.3003 27.7604 91.4073 31.7886 89.6213 35.2635C87.8353 38.719 85.2922 41.4174 81.992 43.3587C78.7112 45.2805 74.8093 46.2415 70.2861 46.2415ZM70.3443 36.6321C72.4021 36.6321 74.1201 36.0497 75.4984 34.8849C76.8767 33.7008 77.9153 32.0895 78.6142 30.0511C79.3325 28.0128 79.6916 25.6929 79.6916 23.0916C79.6916 20.4903 79.3325 18.1705 78.6142 16.1321C77.9153 14.0938 76.8767 12.4825 75.4984 11.2983C74.1201 10.1141 72.4021 9.52202 70.3443 9.52202C68.2671 9.52202 66.52 10.1141 65.1028 11.2983C63.7051 12.4825 62.6471 14.0938 61.9288 16.1321C61.23 18.1705 60.8805 20.4903 60.8805 23.0916C60.8805 25.6929 61.23 28.0128 61.9288 30.0511C62.6471 32.0895 63.7051 33.7008 65.1028 34.8849C66.52 36.0497 68.2671 36.6321 70.3443 36.6321Z" fill="#1A1A2E"/>
<path d="M22.1591 46.2415C17.5777 46.2415 13.6368 45.2708 10.3367 43.3295C7.05588 41.3688 4.53221 38.651 2.76564 35.1761C1.01848 31.7012 0.144897 27.7022 0.144897 23.179C0.144897 18.5975 1.02818 14.5791 2.79476 11.1236C4.58074 7.64868 7.11412 4.94058 10.3949 2.99929C13.6757 1.03859 17.5777 0.0582428 22.1009 0.0582428C26.0029 0.0582428 29.4195 0.766811 32.3509 2.18395C35.2822 3.60109 37.602 5.59091 39.3104 8.15341C41.0187 10.7159 41.9602 13.7249 42.135 17.1804H30.429C30.099 14.9479 29.2254 13.1522 27.8083 11.7933C26.4105 10.415 24.576 9.72586 22.3047 9.72586C20.3828 9.72586 18.7036 10.25 17.2671 11.2983C15.8499 12.3272 14.7434 13.8317 13.9475 15.8118C13.1515 17.7919 12.7536 20.1894 12.7536 23.0043C12.7536 25.858 13.1418 28.2846 13.9183 30.2841C14.7143 32.2836 15.8305 33.8075 17.2671 34.8558C18.7036 35.9041 20.3828 36.4283 22.3047 36.4283C23.7218 36.4283 24.9934 36.1371 26.1193 35.5547C27.2647 34.9723 28.2062 34.1278 28.9439 33.0213C29.701 31.8954 30.196 30.5462 30.429 28.9737H42.135C41.9408 32.3904 41.009 35.3994 39.3395 38.0007C37.6894 40.5826 35.4084 42.6016 32.4965 44.0575C29.5845 45.5135 26.1387 46.2415 22.1591 46.2415Z" fill="#1A1A2E"/>
<path d="M12.75 22.8679L1 30.3679C1 30.3679 3.71933e-05 26.8679 0 23.3679C0 19.3679 1.01004 15.8679 1.01004 15.8679L12.75 22.8679Z" fill="#815BD4"/>
</svg>
